<?xml version="1.0" encoding="utf-8"?>
<!-- Generator: Adobe Illustrator 16.0.0, SVG Export Plug-In . SVG Version: 6.00 Build 0)  -->
<!DOCTYPE svg PUBLIC "-//W3C//DTD SVG 1.1//EN" "http://www.w3.org/Graphics/SVG/1.1/DTD/svg11.dtd">
<svg version="1.1" id="Layer_1" xmlns="http://www.w3.org/2000/svg" xmlns:xlink="http://www.w3.org/1999/xlink" x="0px" y="0px"
	 width="212.795px" height="220.59px" viewBox="0 0 212.795 220.59" enable-background="new 0 0 212.795 220.59"
	 xml:space="preserve">
<path fill="#10003B" d="M114.773,175.029H98.552c-7.367,0-14.434-3.088-19.9-8.695c-6.218-6.389-9.784-15.509-9.784-25.021v-26.488
	c0-23.613,4.674-47.387,13.518-68.748c5.882-14.201,13.522-27.294,22.708-38.917c0.758-0.959,2.38-0.959,3.138,0
	c9.185,11.623,16.826,24.717,22.707,38.916c8.844,21.361,13.519,45.134,13.519,68.749v26.488c0,9.513-3.566,18.633-9.783,25.02
	C129.208,171.941,122.141,175.029,114.773,175.029 M106.663,11.66c-8.261,10.823-15.179,22.903-20.581,35.946
	c-8.645,20.881-13.214,44.124-13.214,67.218v26.488c0,8.48,3.152,16.583,8.649,22.23c4.706,4.827,10.756,7.486,17.035,7.486h16.221
	c6.28,0,12.33-2.659,17.036-7.488c5.496-5.646,8.649-13.748,8.649-22.229v-26.488c0-23.095-4.569-46.338-13.214-67.219
	C121.841,34.564,114.924,22.484,106.663,11.66"/>
<path fill="#10003B" d="M78.722,116.824c-1.104,0-2-0.896-2-2c0-9.557,0.754-19.17,2.241-28.573
	c0.173-1.091,1.197-1.827,2.288-1.662c1.091,0.173,1.836,1.196,1.663,2.287c-1.454,9.197-2.192,18.601-2.192,27.948
	C80.722,115.928,79.826,116.824,78.722,116.824"/>
<path fill="#10003B" d="M78.722,143.312c-1.104,0-2-0.896-2-2v-13.819c0-1.104,0.896-2,2-2s2,0.896,2,2v13.819
	C80.722,142.417,79.826,143.312,78.722,143.312"/>
<path fill="#10003B" d="M106.663,104.271c-9.764,0-17.708-7.943-17.708-17.708s7.944-17.708,17.708-17.708
	s17.708,7.943,17.708,17.708S116.427,104.271,106.663,104.271 M106.663,72.855c-7.559,0-13.708,6.149-13.708,13.708
	c0,7.56,6.149,13.708,13.708,13.708s13.708-6.148,13.708-13.708C120.371,79.004,114.222,72.855,106.663,72.855"/>
<path fill="#10003B" d="M129.089,48.84H84.237c-0.668,0-1.292-0.333-1.663-0.889c-0.371-0.555-0.441-1.258-0.186-1.876
	c5.876-14.194,13.515-27.288,22.705-38.917c0.38-0.479,0.958-0.759,1.57-0.759c0.612,0,1.19,0.279,1.569,0.759
	c9.19,11.629,16.829,24.723,22.705,38.917c0.256,0.618,0.186,1.321-0.185,1.876C130.381,48.507,129.757,48.84,129.089,48.84
	 M87.258,44.84h38.81c-5.213-11.981-11.728-23.122-19.405-33.181C98.985,21.718,92.47,32.859,87.258,44.84"/>
<path fill="#10003B" d="M106.663,212.615c-0.757,0-1.449-0.428-1.788-1.104l-11.947-23.873l-21.097,9.327
	c-0.712,0.318-1.546,0.187-2.132-0.328c-0.586-0.518-0.817-1.328-0.592-2.076l9.062-30.199c0.203-0.679,0.751-1.198,1.439-1.367
	c0.689-0.17,1.414,0.039,1.908,0.546c4.707,4.829,10.757,7.488,17.036,7.488h16.222c6.279,0,12.329-2.659,17.036-7.488
	c0.494-0.507,1.22-0.716,1.908-0.546c0.688,0.169,1.236,0.688,1.439,1.367l9.062,30.199c0.225,0.748-0.006,1.559-0.592,2.076
	c-0.585,0.515-1.418,0.646-2.132,0.328l-21.097-9.327l-11.946,23.873C108.113,212.187,107.421,212.615,106.663,212.615
	 M93.862,183.037c0.735,0,1.44,0.407,1.79,1.104l11.011,22.005l11.011-22.005c0.478-0.954,1.623-1.366,2.598-0.934l18.868,8.344
	l-6.895-22.978c-5.056,4.184-11.154,6.455-17.471,6.455H98.552c-6.317,0-12.415-2.271-17.471-6.455l-6.895,22.978l18.868-8.344
	C93.317,183.092,93.591,183.037,93.862,183.037"/>
<path fill="#10003B" d="M33.259,186.357c-0.389,0-0.78-0.113-1.119-0.343c-0.742-0.501-1.06-1.434-0.779-2.284l16.085-48.709
	c0.271-0.819,1.036-1.373,1.899-1.373h21.522c1.105,0,2,0.896,2,2v5.664c0,6.843,1.954,13.263,5.65,18.566
	c0.425,0.611,0.476,1.409,0.131,2.069c-0.344,0.66-1.027,1.074-1.773,1.074H61.63l-27.08,22.863
	C34.18,186.198,33.721,186.357,33.259,186.357 M50.792,137.648l-13.412,40.614l22.23-18.769c0.361-0.305,0.818-0.472,1.29-0.472
	h12.387c-2.9-5.293-4.419-11.345-4.419-17.71v-3.664H50.792z"/>
<path fill="#10003B" d="M180.267,186.357c-0.461,0-0.92-0.159-1.29-0.472l-27.081-22.863h-15.244c-0.745,0-1.429-0.414-1.773-1.074
	c-0.345-0.659-0.294-1.458,0.132-2.069c3.695-5.304,5.648-11.724,5.648-18.566v-5.664c0-1.104,0.896-2,2-2h21.523
	c0.863,0,1.628,0.554,1.899,1.373l16.085,48.709c0.281,0.851-0.038,1.783-0.779,2.284
	C181.047,186.244,180.657,186.357,180.267,186.357 M140.241,159.022h12.387c0.472,0,0.929,0.167,1.29,0.472l22.23,18.769
	l-13.412-40.614h-18.077v3.664C144.659,147.677,143.141,153.729,140.241,159.022"/>
</svg>
