<svg xmlns="http://www.w3.org/2000/svg" version="1.1" xmlns:xlink="http://www.w3.org/1999/xlink" xmlns:svgjs="http://svgjs.com/svgjs" width="1440" height="800" preserveAspectRatio="none" viewBox="0 0 1440 800"><g mask="url(&quot;#SvgjsMask1017&quot;)" fill="none"><path d="M483.52043809201643 26.712754191850774L326.0968321010072-12.537359090259347 286.84671881889705 144.88624690074994 444.2703248099063 184.13636018286005z" fill="rgba(128, 0, 255, 0.4)" class="triangle-float3"></path><path d="M569.38 391.57 a244.53 244.53 0 1 0 489.06 0 a244.53 244.53 0 1 0 -489.06 0z" fill="rgba(128, 0, 255, 0.4)" class="triangle-float3"></path><path d="M861.839,133.405C890.22,132.011,912.647,112.729,927.48,88.493C943.168,62.86,954.182,31.955,940.217,5.344C925.46,-22.776,893.577,-37.673,861.839,-36.587C831.852,-35.561,807.464,-15.443,792.233,10.409C776.721,36.736,768.941,68.947,783.991,95.541C799.224,122.458,830.948,134.922,861.839,133.405" fill="rgba(128, 0, 255, 0.4)" class="triangle-float3"></path><path d="M-81.92075755022988 275.19805118164754L151.6402723557377 324.84298063856903 201.28520181265918 91.28195073260144-32.27582809330839 41.637021275679956z" fill="rgba(128, 0, 255, 0.4)" class="triangle-float2"></path><path d="M936.8438253627298 268.92136259037994L1087.420168793485 211.1205198201717 1029.6193260232767 60.544176389416606 879.0429825925216 118.34501915962485z" fill="rgba(128, 0, 255, 0.4)" class="triangle-float2"></path><path d="M1008.611,825.036C1043.837,826.45,1072.761,799.168,1089.072,767.914C1104.142,739.037,1101.97,705.169,1085.975,676.793C1069.659,647.847,1041.832,625.843,1008.611,625.171C974.302,624.477,941.272,643.007,925.632,673.551C911.096,701.939,923.29,733.902,938.612,761.873C954.794,791.415,974.954,823.685,1008.611,825.036" fill="rgba(128, 0, 255, 0.4)" class="triangle-float2"></path><path d="M1295.1746667071511 855.5563690364763L1456.714857261221 796.7605480371045 1236.3788457077792 694.0161784824066z" fill="rgba(128, 0, 255, 0.4)" class="triangle-float3"></path><path d="M601.209,1027.414C683.587,1034.092,775.712,1028.331,822.584,960.26C874.549,884.793,874.734,780.125,824.045,703.795C777.455,633.638,685.346,623.212,601.209,626.905C524.947,630.252,446.787,655.164,409.859,721.973C373.866,787.092,394.847,865.734,434.348,928.787C471.112,987.471,532.186,1021.819,601.209,1027.414" fill="rgba(128, 0, 255, 0.4)" class="triangle-float3"></path></g><defs><mask id="SvgjsMask1017"><rect width="1440" height="800" fill="#ffffff"></rect></mask><style>
            @keyframes float1 {
                0%{transform: translate(0, 0)}
                50%{transform: translate(-10px, 0)}
                100%{transform: translate(0, 0)}
            }

            .triangle-float1 {
                animation: float1 5s infinite;
            }

            @keyframes float2 {
                0%{transform: translate(0, 0)}
                50%{transform: translate(-5px, -5px)}
                100%{transform: translate(0, 0)}
            }

            .triangle-float2 {
                animation: float2 4s infinite;
            }

            @keyframes float3 {
                0%{transform: translate(0, 0)}
                50%{transform: translate(0, -10px)}
                100%{transform: translate(0, 0)}
            }

            .triangle-float3 {
                animation: float3 6s infinite;
            }
        </style></defs></svg>