<?xml version="1.0" standalone="no"?><svg xmlns="http://www.w3.org/2000/svg" viewBox="0 0 1440 320"><path fill="#3B28CC" fill-opacity="1" d="M0,96L20,96C40,96,80,96,120,128C160,160,200,224,240,234.7C280,245,320,203,360,186.7C400,171,440,181,480,181.3C520,181,560,171,600,181.3C640,192,680,224,720,218.7C760,213,800,171,840,165.3C880,160,920,192,960,202.7C1000,213,1040,203,1080,170.7C1120,139,1160,85,1200,96C1240,107,1280,181,1320,181.3C1360,181,1400,107,1420,69.3L1440,32L1440,320L1420,320C1400,320,1360,320,1320,320C1280,320,1240,320,1200,320C1160,320,1120,320,1080,320C1040,320,1000,320,960,320C920,320,880,320,840,320C800,320,760,320,720,320C680,320,640,320,600,320C560,320,520,320,480,320C440,320,400,320,360,320C320,320,280,320,240,320C200,320,160,320,120,320C80,320,40,320,20,320L0,320Z"></path></svg>